<?xml version="1.0" encoding="UTF-8" standalone="no"?>
<!-- Generator: Adobe Illustrator 24.0.0, SVG Export Plug-In . SVG Version: 6.00 Build 0)  -->

<svg
   version="1.1"
   id="Layer_1"
   x="0px"
   y="0px"
   viewBox="0 0 1342.6754 1240.2671"
   xml:space="preserve"
   sodipodi:docname="qbcore-logo.svg"
   width="1342.6754"
   height="1240.2671"
   inkscape:version="1.2 (dc2aedaf03, 2022-05-15)"
   xmlns:inkscape="http://www.inkscape.org/namespaces/inkscape"
   xmlns:sodipodi="http://sodipodi.sourceforge.net/DTD/sodipodi-0.dtd"
   xmlns="http://www.w3.org/2000/svg"
   xmlns:svg="http://www.w3.org/2000/svg"><defs
   id="defs34" /><sodipodi:namedview
   id="namedview32"
   pagecolor="#ffffff"
   bordercolor="#000000"
   borderopacity="0.25"
   inkscape:showpageshadow="2"
   inkscape:pageopacity="0.0"
   inkscape:pagecheckerboard="0"
   inkscape:deskcolor="#d1d1d1"
   showgrid="false"
   inkscape:zoom="0.3236166"
   inkscape:cx="213.21527"
   inkscape:cy="344.54351"
   inkscape:window-width="1920"
   inkscape:window-height="1001"
   inkscape:window-x="-9"
   inkscape:window-y="-9"
   inkscape:window-maximized="1"
   inkscape:current-layer="Layer_1" />
<style
   type="text/css"
   id="style19">
	.st0{fill:#DC153D;}
	.st1{fill:#F1A3B3;}
	.st2{fill:#FFFEFE;}
	.st3{fill:#FFFFFF;}
</style>
<g
   id="g29"
   transform="translate(-138.23547,-89.212639)">
	<path
   class="st0"
   d="m 1470.03,785.79 c -30.93,125.92 -136.77,224.4 -264.44,247.63 -129.82,23.62 -282.57617,-37.28963 -358.77617,-146.87963 -0.37389,0.69956 -36.64418,-51.73209 -37.18383,-51.33037 0,160.35 0.02,320.69 -0.04,481.04 -0.01,14.98 2.25,13.06 -13.35,13.09 -40.34,0.09 -80.67,0.03 -121.01,0.03 -2,0 -4.01,-0.15 -6,0.03 -4.86,0.45 -7.76,-0.91 -7,-6.55 0.31,-2.29 0.05,-4.66 0.05,-6.99 V 993.83 981.75 c -4.33,2.59 -7.12,4.19 -9.85,5.89 -45.47,28.28 -94.77,44.84 -148.18,49.81 -169.64,15.78 -320.08,-98.22 -357,-256.67 -43.13,-185.1 73.09,-363.24 250.72,-403.99 133.2,-30.56 276.92397,21.87191 357.56397,132.25191 L 808.95,578.69519 c 0.03,-155.68 0.03,-319.08519 0.03,-474.76519 0,-2 -0.03,-4 0,-6 0.14,-8.6 0.15,-8.68 8.9,-8.69 42.67,-0.03 85.34,-0.02 128.01,-0.01 10.88,0 10.25,-0.9 10.25,10.26 v 313.03 12.15 c 106.25,-65.16 217.1,-77.38 330.06,-24.76 113.29,52.77 175.31,145.42 193.18,269.86 3.8978,39.05765 0.1991,76.9732 -9.35,116.02 z M 473.8,891.64 C 575.11,892.63 662.05,810.12 662.1,703.81 662.15,599.12 577.98,514.85 473.37,515.17 366.63,515.5 284.8,602.64 285.52,704.72 c 0.73,103.54 84.51,187.16 188.28,186.92 z m 858.88,-187.51 c 1.38,-99.74 -78.91,-187.79 -186.22,-188.95 -103.88,-1.12 -189.18,81.36 -190.11,186.13 -0.93,105.44 82.26,189.34 186.83,190.4 104.84,1.07 190.1,-84.46 189.5,-187.58 z"
   id="path21"
   inkscape:label="path21"
   sodipodi:nodetypes="ccccccsccsccccccccscccsccccccccccccccc" />
	
	
	
</g>
</svg>
