<?xml version="1.0" standalone="no"?>
<!DOCTYPE svg PUBLIC "-//W3C//DTD SVG 20010904//EN"
 "http://www.w3.org/TR/2001/REC-SVG-20010904/DTD/svg10.dtd">
<svg version="1.0" xmlns="http://www.w3.org/2000/svg"
 width="474.000000pt" height="474.000000pt" viewBox="0 0 474.000000 474.000000"
 preserveAspectRatio="xMidYMid meet">
<metadata>
Created by potrace 1.14, written by Peter Selinger 2001-2017
</metadata>
<g transform="translate(0.000000,474.000000) scale(0.100000,-0.100000)"
fill="#000000" stroke="none">
<path d="M2368 3638 l-3 -841 -134 169 c-161 203 -194 239 -289 315 -128 103
-259 169 -427 215 -122 34 -348 44 -480 21 -473 -83 -841 -446 -931 -916 -22
-115 -22 -310 0 -424 65 -337 286 -637 584 -795 184 -97 372 -138 591 -129
180 7 294 36 464 120 l127 63 0 -588 0 -588 250 0 250 0 2 862 3 862 85 -104
c47 -58 112 -140 143 -182 148 -197 380 -351 624 -414 134 -35 348 -44 478
-20 257 48 451 153 631 338 211 218 317 480 317 788 1 313 -116 593 -338 813
-363 359 -925 432 -1373 178 l-67 -39 -3 569 -2 569 -250 0 -250 0 -2 -842z
m-984 -628 c213 -54 380 -210 449 -419 55 -166 44 -327 -35 -491 -101 -209
-330 -349 -574 -350 -165 0 -317 64 -440 185 -135 134 -183 240 -191 425 -6
134 8 205 62 315 132 269 437 410 729 335z m2334 -13 c190 -67 328 -204 400
-395 19 -52 26 -92 30 -182 5 -136 -9 -205 -65 -320 -52 -107 -178 -233 -285
-284 -360 -172 -782 10 -898 389 -48 159 -34 319 43 475 72 149 218 272 382
323 76 24 91 26 210 23 88 -2 125 -8 183 -29z"/>
</g>
</svg>
